# xmcd
#
# Track frame offsets: 
#        150
#        15448
#        25322
#        38229
#        49974
#        60514
#        73290
#        84889
#        102143
#        114426
#        132478
#        147219
#        161374
#        172286
#        197470
#        208603
#        221815
#        235161
#        250022
#        263351
#        275651
#        288313
#        303233
#        317143
#        331605
#
# Disc length: 4579 seconds
#
# Revision: 0
# Processed by: cddbd v1.4PL0 Copyright (c) Steve Scherf et al.
# Submitted via: ExactAudioCopy v0.90b4
#
DISCID=6311e119
DTITLE=Various Artist - 50 Blues Greats Disc 2
DYEAR=1999
DGENRE=Blues
TTITLE0=Muddy Waters/32-20 Blues
TTITLE1=John Lee Hooker/Dimples
TTITLE2=Bessie Smith/Preachin' The Blues
TTITLE3=Robert Johnson/Hell Hound On My Trail
TTITLE4=John Lee Hooker/Dusty Road
TTITLE5=Muddy Waters/Forty Days and Forty Nights
TTITLE6=Memphis Slim/Let The Good Times Creole
TTITLE7=Jimmy Reed/Cry Before I Go
TTITLE8=Howlin' Wolf/I Ain't Superstitious
TTITLE9=Tommy Tucker/High Heel Sneekers
TTITLE10=Billy Boy Arnold with Tony McPhee/Don't Stay Out All Night
TTITLE11=John Lee Hooker/Stomp Boogie
TTITLE12=Elmore James/Coming Home
TTITLE13=Howlin' Wolf/Little Red Roioster
TTITLE14=Lonesome/Memphis Slim
TTITLE15=Elmore James/Dust My Broom
TTITLE16=Muddy Waters/Rollin and Tumblin
TTITLE17=Tommy Tucker/Drunk
TTITLE18=Jimmy Reed/Hard Walking Hanna
TTITLE19=John Lee Hooker/House Rent Boogie
TTITLE20=Bukka White/Fixin To Die Blues
TTITLE21=Sleepy John Estes/Broken Hearted-Ragged and Dirty Too
TTITLE22=Muddy Waters/I Be's Troubled
TTITLE23=Big Joe Williams/Highway 49
TTITLE24=John Lee Hooker/Boogie Chillun
EXTD=
EXTT0=
EXTT1=
EXTT2=
EXTT3=
EXTT4=
EXTT5=
EXTT6=
EXTT7=
EXTT8=
EXTT9=
EXTT10=
EXTT11=
EXTT12=
EXTT13=
EXTT14=
EXTT15=
EXTT16=
EXTT17=
EXTT18=
EXTT19=
EXTT20=
EXTT21=
EXTT22=
EXTT23=
EXTT24=
PLAYORDER=
